<?xml version="1.0" encoding="UTF-8"?>
<svg width="40px" height="40px" viewBox="0 0 40 40" version="1.1" xmlns="http://www.w3.org/2000/svg" xmlns:xlink="http://www.w3.org/1999/xlink">
    <!-- Generator: Sketch 39.1 (31720) - http://www.bohemiancoding.com/sketch -->
    <title>Linkedin</title>
    <desc>Created with Sketch.</desc>
    <defs></defs>
    <g id="Page-1" stroke="none" stroke-width="1" fill="none" fill-rule="evenodd">
        <g id="Linkedin">
            <circle id="Oval-1-Copy-5" fill="#0976B4" cx="20" cy="20" r="20"></circle>
            <path d="M12.2087302,14.8381931 C13.585619,14.8381931 14.7018413,13.820253 14.7018413,12.5631772 C14.7018413,11.304989 13.585619,10.2857143 12.2087302,10.2857143 C10.8305079,10.2857143 9.71428571,11.304989 9.71428571,12.5631772 C9.71428571,13.820253 10.8305079,14.8381931 12.2087302,14.8381931" id="Fill-182" fill="#FFFFFF"></path>
            <polygon id="Fill-183" fill="#FFFFFF" points="10.2857143 29.4729733 14.7590476 29.4729733 14.7590476 16.5714286 10.2857143 16.5714286"></polygon>
            <path d="M21.0374286,22.2973918 C21.0374286,20.817864 21.7374286,19.3710366 23.4112063,19.3710366 C25.0849841,19.3710366 25.4965397,20.817864 25.4965397,22.2620219 L25.4965397,29.3081869 L29.949873,29.3081869 L29.949873,21.9739467 C29.949873,16.8784627 26.937873,16 25.0849841,16 C23.2336508,16 22.2125397,16.6262022 21.0374286,18.1435468 L21.0374286,16.4066421 L16.5714286,16.4066421 L16.5714286,29.3081869 L21.0374286,29.3081869 L21.0374286,22.2973918 Z" id="Fill-184" fill="#FFFFFF"></path>
        </g>
    </g>
</svg>